<svg width="21" height="20" viewBox="0 0 21 20" fill="none" xmlns="http://www.w3.org/2000/svg">
<g clip-path="url(#clip0_54_32)">
<path d="M19.6017 1.41665C19.321 1.18142 18.9919 1.01106 18.6379 0.917713C18.2838 0.824368 17.9135 0.810346 17.5533 0.876649L12.4033 1.81248C11.6664 1.94536 10.9958 2.32294 10.5 2.88415C10.0046 2.32201 9.33396 1.94353 8.59667 1.80998L3.44667 0.874149C3.08647 0.808742 2.71631 0.823239 2.36234 0.916614C2.00836 1.00999 1.67921 1.17996 1.39815 1.41453C1.11709 1.64909 0.890969 1.94252 0.735772 2.27408C0.580575 2.60564 0.500089 2.96723 0.5 3.33332L0.5 17.3617L10.5 19.1808L20.5 17.3617V3.33332C20.5 2.9675 20.4196 2.60616 20.2643 2.27492C20.1091 1.94368 19.8828 1.65066 19.6017 1.41665ZM9.66667 17.3333L2.16667 15.9717V3.33332C2.16677 3.21131 2.19366 3.09081 2.24545 2.98033C2.29723 2.86986 2.37264 2.7721 2.46635 2.69397C2.56006 2.61584 2.66979 2.55924 2.78777 2.52817C2.90576 2.4971 3.02913 2.49231 3.14917 2.51415L8.29833 3.44998C8.68235 3.51985 9.02967 3.72228 9.27973 4.02199C9.52979 4.3217 9.66673 4.69966 9.66667 5.08998V17.3333ZM18.8333 15.97L11.3333 17.3333V5.08998C11.3333 4.69966 11.4702 4.3217 11.7203 4.02199C11.9703 3.72228 12.3176 3.51985 12.7017 3.44998L17.8508 2.51415C17.9709 2.49231 18.0942 2.4971 18.2122 2.52817C18.3302 2.55924 18.4399 2.61584 18.5336 2.69397C18.6274 2.7721 18.7028 2.86986 18.7546 2.98033C18.8063 3.09081 18.8332 3.21131 18.8333 3.33332V15.97Z" fill="#F5F5F5"/>
</g>
<defs>
<clipPath id="clip0_54_32">
<rect width="20" height="20" fill="white" transform="translate(0.5)"/>
</clipPath>
</defs>
</svg>
