<svg width="40" height="32" viewBox="0 0 40 32" fill="none" xmlns="http://www.w3.org/2000/svg">
<path fill-rule="evenodd" clip-rule="evenodd" d="M6.03517 0.88817C-0.806158 2.33403 -2.23684 11.8143 3.84771 15.3828C6.01492 16.6538 9.26975 16.9208 11.0942 15.9774C11.4148 15.8116 11.419 15.8127 11.3683 16.0505C11.3399 16.1834 11.2438 16.6644 11.1545 17.1195C10.322 21.3663 7.57553 24.9786 3.07764 27.7426C2.49096 28.1032 2.03685 28.4502 2.0629 28.518C2.10845 28.6366 3.77167 31.0703 3.93081 31.2512C4.05199 31.3888 6.20117 30.2428 7.75133 29.2137C12.9094 25.7899 16.3096 20.9466 17.2282 15.7144C18.7771 6.89288 13.1143 -0.607999 6.03517 0.88817ZM28.4983 0.900614C22.2579 2.23996 20.2988 10.6444 25.2843 14.6892C27.4504 16.4466 31.1264 17.0795 33.335 16.0754C33.9006 15.8183 33.9006 15.8183 33.8258 16.3189C33.1394 20.9131 30.1687 24.9967 25.4663 27.8098C24.9298 28.1307 24.4908 28.4124 24.4908 28.4357C24.4908 28.4659 26.1283 30.8622 26.4483 31.3004C26.4976 31.3678 28.7958 30.158 29.6868 29.5956C37.2123 24.8456 41.1152 17.1426 39.7207 9.79167C38.5533 3.63721 33.6921 -0.214103 28.4983 0.900614Z" fill="#DAD4CC"/>
</svg>
