<svg width="856" height="332" viewBox="0 0 856 332" fill="none" xmlns="http://www.w3.org/2000/svg">
<path fill-rule="evenodd" clip-rule="evenodd" d="M215.015 2.561V5.12201H218.771C223.627 5.12201 226.078 6.27409 227.714 9.32675L228.968 11.6676V101.574L227.692 103.827C225.96 106.887 224.581 107.503 219.424 107.533L215.007 107.555V113.242H266.273V107.665L261.475 107.467C257.366 107.298 256.471 107.07 255.239 105.911C252.297 103.145 252.033 101.053 252.033 80.4184V61.4567H302.227L302.051 81.5118C301.875 101.383 301.86 101.589 300.547 103.702C298.493 107.004 297.349 107.54 292.404 107.54H288.024L287.826 110.387L287.628 113.235H339.752V107.658C338.644 107.826 330.67 108.964 328.41 106.3C328.322 106.197 327.882 105.786 327.515 105.111C327.119 104.385 325.674 103.027 325.307 100.84C324.705 97.2081 324.896 13.5535 325.512 11.3447C325.82 10.2367 326.987 8.44617 328.102 7.36013C330.046 5.48157 330.347 5.38618 334.947 5.19539L339.759 4.99726V0H287.922V5.12201H291.964C296.952 5.12201 298.867 6.12733 300.606 9.6643C301.838 12.1593 301.882 12.8711 302.036 32.2951L302.198 52.3501H252.026V32.8601C252.026 15.7843 252.143 13.0325 253.009 10.6109C254.439 6.62632 256.361 5.45222 261.849 5.20273L266.265 4.99726V0H215V2.561H215.015ZM376.227 36.7566C375.486 36.8814 372.647 37.3804 369.104 38.7086C361.76 41.4604 357.146 45.6431 356.097 46.6117C354.718 47.8959 348.357 54.0012 345.452 64.4507C343.867 70.1598 343.875 80.0956 345.467 85.8413C346.325 88.9233 349.142 97.5529 357.227 104.781C360.799 107.973 364.057 109.69 364.82 110.079C375.574 115.605 391.853 115.913 404.633 106.953C411.749 101.963 417.464 93.2675 419.569 84.2269C420.186 81.5852 421.565 74.5993 419.555 66.021C417.105 55.5349 411.133 49.1874 409.908 47.9252C408.668 46.6484 403.701 41.6952 395.463 38.7012C386.094 35.289 378.142 36.4484 376.213 36.7713L376.227 36.7566ZM474.429 36.9548C470.725 37.8353 466.983 40.1909 462.897 44.2048C460.571 46.4943 458.576 48.3582 458.466 48.3582C458.356 48.3582 458.26 45.7972 458.26 42.6712V36.9841H455.524C452.993 36.9841 452.56 37.2116 449.67 40.0001C447.953 41.6585 445.4 43.5737 443.999 44.2489C440.852 45.7678 433.068 47.7712 430.251 47.7858C426.95 47.8005 426.363 48.2334 426.363 50.6257C426.363 52.6583 426.473 52.7831 428.498 53.1206C429.671 53.3114 431.285 53.4729 432.078 53.4802C434.132 53.4875 437.455 56.9218 438.284 59.879C438.761 61.6035 438.908 68.0904 438.79 82.2236C438.629 100.525 438.526 102.315 437.521 104.341C436.318 106.77 434.257 107.914 430.06 108.487C427.537 108.832 427.507 108.861 427.507 111.033V113.235H467.952V110.96C467.952 109.397 467.702 108.685 467.159 108.685C466.726 108.685 465.098 108.274 463.543 107.775C458.51 106.153 458.576 106.461 458.378 83.1702C458.231 65.5441 458.327 62.6969 459.17 60.1285C460.99 54.5736 463.308 51.2054 467.181 48.4976C467.482 48.2848 467.886 48.0573 468.443 47.7932C470.145 47.008 471.686 46.8979 472.427 46.8906C472.427 46.8906 474.826 46.8612 477.122 48.0206C481.912 50.4496 482.954 56.5622 483.049 57.1933V80.5212C483.049 107.665 483.314 106.351 477.562 107.944C474.231 108.868 474.224 108.876 474.224 111.055V113.235H511.822V111.077C511.822 108.927 511.807 108.912 508.601 108.09C506.298 107.503 505.036 106.799 504.185 105.654C503.026 104.091 502.997 103.467 502.997 82.3263C502.997 61.0311 503.026 60.5395 504.295 57.3914C505.828 53.5976 509.298 49.4516 512.035 48.1601C513.106 47.6537 515.336 47.2355 516.979 47.2355C520.442 47.2355 522.958 48.7838 525.137 52.2621C527.551 56.1219 527.771 58.5142 527.771 81.0569C527.771 107.092 527.918 106.41 521.946 107.951L518.087 108.942V113.242H558.531V111.04C558.531 108.861 558.509 108.839 555.92 108.487C552.039 107.958 549.75 106.652 548.517 104.26C548.415 104.062 548.327 103.864 548.239 103.651C545.268 95.9606 547.116 78.2464 547.116 78.2464C549.346 56.8411 543.544 46.8906 541.981 44.9166C540.778 43.3976 539.347 42.0548 539.347 42.0548C534.843 37.7693 531.923 36.7053 524.638 36.7053C520.361 36.7053 518.234 36.9841 516.092 37.806C511.661 39.5231 506.21 43.6691 503.613 47.3162C502.329 49.114 501.148 50.6037 500.994 50.6183C500.84 50.633 500.069 49.4296 499.284 47.9473C498.499 46.4576 496.357 43.7719 494.516 41.974C491.816 39.3323 490.459 38.4811 487.473 37.5638C483.717 36.4044 477.907 36.1402 474.437 36.9621L474.429 36.9548ZM385.383 43.8159C389.799 45.0414 394.729 51.1467 396.549 57.6483C397.003 59.27 397.363 60.378 397.862 62.6675C397.862 62.6675 400.848 76.3384 398.515 89.004C398.177 90.8532 397.708 92.5777 397.708 92.5777C397.356 93.8765 396.989 94.9259 396.571 96.166C394.032 103.776 388.009 108.171 381.429 107.21C378.01 106.711 376.403 105.852 373.894 103.181C368.143 97.0539 365.399 87.1695 365.406 72.552C365.406 63.4087 366.375 57.6776 368.847 52.1227C372.038 44.9533 378.245 41.8346 385.376 43.8159H385.383ZM596.621 36.2576C595.88 36.3824 593.041 36.8814 589.497 38.2096C582.154 40.9614 577.539 45.1441 576.49 46.1127C575.111 47.3969 568.751 53.5022 565.846 63.9517C564.261 69.6608 564.268 79.5966 565.86 85.3423C566.719 88.4243 569.536 97.054 577.62 104.282C581.193 107.474 584.45 109.191 585.213 109.58C595.968 115.106 612.247 115.414 625.027 106.454C632.143 101.464 637.858 92.7685 639.963 83.7279C640.579 81.0862 641.959 74.1003 639.948 65.5221C637.498 55.0359 631.526 48.6884 630.301 47.4263C629.062 46.1494 624.095 41.1962 615.856 38.2022C606.488 34.79 598.536 35.9494 596.606 36.2723L596.621 36.2576ZM605.776 43.3169C610.193 44.5424 615.123 50.6477 616.942 57.1493C617.397 58.771 617.756 59.879 618.255 62.1685C618.255 62.1685 621.241 75.8394 618.908 88.505C618.571 90.3542 618.101 92.0787 618.101 92.0787C617.749 93.3776 617.382 94.4269 616.964 95.667C614.426 103.277 608.403 107.672 601.822 106.711C598.404 106.212 596.797 105.353 594.288 102.682C588.536 96.555 585.793 86.6705 585.8 72.053C585.8 62.9097 586.768 57.1786 589.241 51.6237C592.432 44.4543 598.638 41.3356 605.769 43.3169H605.776Z" fill="#CFB0CD"/>
<path fill-rule="evenodd" clip-rule="evenodd" d="M84.8779 145.912C67.7001 148.657 52.918 154.459 39.7177 163.645C33.542 167.948 24.7728 176.32 20.2719 182.227C18.7949 184.158 17.155 186.193 16.6084 186.751C13.5031 189.96 5.28051 207.589 3.53597 214.787C1.77981 222.008 0.0120092 233.834 0.000378959 238.508C-0.0694025 261.044 9.50229 284.917 25.1566 301.231C30.9834 307.301 43.2533 317.127 45.0094 317.127C45.4863 317.127 46.0213 317.43 46.1841 317.802C46.7656 319.116 57.4305 324.104 64.5483 326.395C78.2719 330.802 86.1107 332.012 101.125 332C125.177 332 145.053 326.093 162.312 313.837L167.953 309.825V273.847H159.032L158.404 278.126C157.613 283.51 153.973 293.906 151.228 298.638C144.053 310.976 130.759 318.465 114.105 319.546C96.4966 320.686 79.0279 313.15 65.7229 298.638C52.0806 283.766 43.3114 264.347 40.2527 242.206C38.45 229.171 38.4383 222.508 40.2061 211.624C43.009 194.344 48.6148 182.937 59.6868 171.925C64.9902 166.646 74.4572 161.087 81.3074 159.215C87.0179 157.645 106.975 157.168 111.965 158.471C125.084 161.913 136.121 168.146 142.18 175.553C144.006 177.785 146.076 180.32 146.797 181.193C147.507 182.065 148.1 182.983 148.1 183.239C148.1 183.495 149.019 185.1 150.135 186.821C151.984 189.67 152.554 189.949 156.462 189.96C158.823 189.96 160.754 189.67 160.754 189.297C160.754 188.925 159.184 182.937 157.253 175.995C155.334 169.053 153.485 162.157 153.136 160.669C152.799 159.18 151.717 155.227 150.728 151.878C148.949 145.831 148.914 145.784 145.716 145.784C143.564 145.784 141.564 146.563 139.703 148.133C136.702 150.657 135.283 150.692 125.084 148.47C108.999 144.97 95.8801 144.133 84.9012 145.889L84.8779 145.912ZM565.684 176.239C565.184 180.274 562.381 188.135 560.799 192.565C560.253 194.088 557.857 199.612 552.798 204.077C549.437 207.042 542.447 209.484 535.131 210.252C526.851 211.112 526.478 211.31 526.478 214.88V217.938H543.563L543.831 262.8L544.098 307.662L546.448 312.662C551.135 322.639 558.101 327.86 569.348 329.814C577.779 331.279 586.444 329.756 596.027 325.128C600.249 323.081 604.785 320.407 606.111 319.186C608.216 317.232 608.402 316.627 607.599 314.337C606.506 311.22 606.553 311.22 598.563 313.639C587.223 317.069 579.396 314.511 576.651 306.453C575.477 303.011 575.256 295.813 575.256 260.16V217.938H602.354V208.019H575.256V173.75C575.256 173.75 570.755 173.75 566.487 174.378C565.824 175.041 565.731 175.925 565.684 176.239ZM250.946 207.984C245.271 209.705 239.874 213.891 235.152 220.275C232.477 223.88 229.814 227.88 229.244 229.148C228.663 230.415 227.849 231.462 227.43 231.462C227.011 231.462 226.674 226.182 226.674 219.74V208.019H222.301C218.242 208.019 217.544 208.379 212.59 213.019C209.659 215.763 205.716 218.833 203.82 219.822C199.238 222.229 187.492 225.124 182.235 225.136C177.338 225.147 176.28 226.31 176.827 231.02C177.075 233.113 178.773 234.159 181.921 234.159C185.689 234.159 187.306 234.659 189.887 236.636C195.563 240.974 195.493 240.532 195.796 275.638C196.086 308.581 195.807 311.953 192.4 316.883C190.992 318.918 183.909 321.627 180.002 321.627C178.164 321.627 177.908 322.069 177.908 325.232V328.837H251.063V321.883L245.213 321.337C235.466 320.43 230.163 316.802 228.011 309.557C226.988 306.127 226.674 299.883 226.674 283.184C226.674 260.021 227.558 252.474 231.198 244.485C237.548 230.578 251.423 226.357 260.25 235.648C263.181 238.729 264.6 242.229 264.6 246.381C264.6 249.451 264.635 249.474 268.682 249.474H272.765L272.52 229.473L272.276 209.473L267.764 208.31C262.797 207.031 254.633 206.868 250.958 207.972L250.946 207.984ZM331.579 208.077C312.773 211.426 294.199 227.869 287.791 246.834C283.302 260.114 282.522 268.695 284.848 279.266C286.86 288.429 287.698 290.615 292.327 298.848C305.713 322.709 335.126 334.756 364.841 328.558C366.446 328.221 375.89 324.755 387.416 318.837C388.137 318.465 388.718 318.162 389.102 317.965C389.567 314.534 389.939 310.767 390.125 306.72C390.311 302.662 390.288 298.871 390.125 295.394L385.834 295.673C383.473 295.824 381.531 296.348 381.507 296.848C380.949 309.243 372.273 317.546 357.921 319.43C352.443 320.151 342.372 317.918 338.464 315.116C333.521 311.581 328.357 305.906 325.81 301.22C322.612 295.336 319.076 282.056 318.285 272.94L317.657 265.742H398.522L398.022 259.137C396.371 237.287 380.519 216.554 360.329 209.845C353.572 207.6 339.231 206.717 331.59 208.077H331.579ZM445.683 208.124C437.333 209.333 425.528 213.333 422.853 215.845C422.062 216.589 421.725 220.426 421.725 228.694V240.485H425.191C428.459 240.485 428.726 240.276 429.75 236.857C433.204 225.334 443.694 217.903 456.429 217.961C465.001 217.996 472.084 223.089 474.131 230.683C476.015 237.683 473.049 244.102 465.676 248.986C461.454 251.776 447.253 258.846 438.693 262.405C426.935 267.3 415.503 276.603 411.653 284.429C410.967 285.824 410.536 287.091 410.35 287.65C409.036 291.475 406.443 301.29 410.897 310.825C411.258 311.604 413.293 315.127 417.084 319.209C427.54 330.453 447.66 333.558 462.291 326.174C468.141 323.232 474.968 316.255 477.399 310.743L478.981 307.162L480.923 312.93C485.633 326.907 490.808 329.349 514.964 328.977L523.769 328.837V320.093L519.838 320.186C514.43 320.302 511.22 318.337 508.987 313.511C507.219 309.674 507.079 307.394 506.567 273.382C505.998 235.648 506.032 235.95 501.741 227.938C499.078 222.95 490.25 214.833 484.586 212.159C474.747 207.519 460.221 206.007 445.683 208.112V208.124ZM775.331 222.88C774.68 223.799 772.539 226.938 771.132 231.578C767.69 242.892 770.179 255.404 777.448 263.358C780.681 266.893 791.648 274.219 798.021 277.091C813.141 283.929 816.467 285.568 821.317 288.673C827.62 292.696 828.342 293.382 830.261 297.068C832.052 300.522 832.156 305.371 830.516 309.278C828.237 314.709 817.991 319.802 809.291 319.825C804.476 319.825 795.579 317.604 790.892 315.22C786.414 312.941 777.634 304.115 775.261 299.522C773.54 296.185 773.121 295.929 769.05 295.661C765.201 295.417 764.736 295.58 765.143 297.01C765.399 297.906 767.539 305.441 769.911 313.743L774.226 328.849H777.203C778.843 328.849 780.506 328.302 780.902 327.639C782.239 325.407 785.752 325.372 794.37 327.5C806.814 330.57 812.92 331 821.282 329.372C835.959 326.511 846.938 318.837 852.509 307.534C854.87 302.755 855.533 300.138 855.905 294.092C856.882 278.521 850.381 268.382 832.994 258.311C829.958 256.556 826.504 254.811 825.318 254.439C819.921 252.753 802.836 243.613 799.51 240.636C795.091 236.694 793.811 234.404 793.823 230.403C793.823 220.287 807.861 214.333 821.515 218.659C831.761 221.903 837.541 226.88 838.925 233.671C839.437 236.171 839.856 236.462 843.298 236.718L847.101 236.997V214.496L843.263 213.112C837.32 210.961 833.377 209.74 829.516 208.926C829.516 208.926 826.783 208.368 824.131 208.031C822.015 207.763 789.101 203.519 775.354 222.903L775.331 222.88ZM654.248 209.752C649.445 214.415 633.802 219.729 624.742 219.752C617.694 219.775 616.787 220.345 616.787 224.799V228.752H620.893C626.208 228.752 629.639 230.578 632.279 234.822C634.372 238.171 634.407 238.683 634.919 269.789C635.454 302.499 635.768 305.266 639.617 311.72C643.758 318.662 648.526 323.395 654.109 326.093C670.031 333.814 688.744 330.337 703.026 317.011C706.294 313.964 709.085 311.627 709.224 311.825C709.364 312.022 709.992 313.93 710.608 316.069C712.074 321.174 715.807 324.953 721.494 327.104C725.344 328.57 728.438 328.849 740.533 328.849H754.978V325.43C754.978 323.151 753.326 321.666 750.023 320.976C744.604 319.837 742.057 317.999 740.58 314.127C739.94 312.441 739.614 294.266 739.614 259.811V208.019H735.113C731.485 208.019 729.624 208.647 725.449 211.321C717.331 216.508 711.388 218.252 695.129 220.229L690.837 220.752V228.752H695.233C700.56 228.752 703.433 230.729 706.108 236.253C707.875 239.892 707.992 241.648 707.992 264.288C707.992 291.138 707.445 294.766 702.293 302.429C698.687 307.767 693.524 311.36 687.674 312.557C679.312 314.278 673.229 311.232 668.856 303.138C666.937 299.603 666.902 298.685 666.646 253.765L666.379 208.007H661.203C657.319 208.007 655.574 208.438 654.237 209.74L654.248 209.752ZM347.861 218.752C355.165 220.45 358.98 226.496 361.457 230.427C368.04 240.846 367.272 251.997 366.644 256.718H318.785C317.971 246.66 320.425 239.311 322.03 235.52C323.542 231.938 325.322 227.752 329.625 224.136C330.788 223.159 338.58 216.589 347.873 218.752H347.861ZM475.701 275.428C475.282 297.534 474.549 301.627 469.862 307.918C466.269 312.755 464.222 314.244 459.686 315.325C456.185 316.162 454.824 316.104 452.336 315.023C444.043 311.406 440.17 303.29 440.891 290.999C441.229 285.138 441.752 283.359 444.334 279.173C447.718 273.707 450.591 271.196 460.628 264.986C464.385 262.66 469.06 259.463 471.014 257.87C472.968 256.276 474.91 254.951 475.329 254.939C475.747 254.928 475.922 264.137 475.701 275.417V275.428Z" fill="#CFB0CD"/>
</svg>
