<svg xmlns="http://www.w3.org/2000/svg" id="logo" viewBox="0 0 130 16">
<g opacity="0.983">
<path fill-rule="evenodd" clip-rule="evenodd" d="M0 0C2.44733 0 4.89466 0 7.34199 0C7.34199 1.59307 7.34199 3.18615 7.34199 4.77922C10.1126 4.77922 12.8831 4.77922 15.6537 4.77922C15.6537 3.18615 15.6537 1.59307 15.6537 0C18.101 0 20.5484 0 22.9957 0C22.9957 5.33333 22.9957 10.6667 22.9957 16C20.5484 16 18.101 16 15.6537 16C15.6537 14.2453 15.6537 12.4906 15.6537 10.7359C12.8831 10.7359 10.1126 10.7359 7.34199 10.7359C7.34199 12.4906 7.34199 14.2453 7.34199 16C4.89466 16 2.44733 16 0 16C0 10.6667 0 5.33333 0 0Z"/>
<path fill-rule="evenodd" clip-rule="evenodd" d="M37.4026 0C40.0808 0 42.759 0 45.4372 0C48.7108 5.32371 51.9662 10.657 55.2035 16C52.5252 16 49.8471 16 47.1688 16C43.9316 10.657 40.6762 5.32371 37.4026 0Z"/>
<path fill-rule="evenodd" clip-rule="evenodd" d="M52.6407 0C55.4343 0 58.228 0 61.0216 0C62.8078 2.91406 64.5856 5.8347 66.355 8.76191C65.012 11.0627 63.6267 13.3369 62.1991 15.5844C58.9948 10.3992 55.8087 5.20444 52.6407 0Z"/>
<path fill-rule="evenodd" clip-rule="evenodd" d="M72.5195 0C75.1979 0 77.8757 0 80.5541 0C77.2807 5.32371 74.0253 10.657 70.7879 16C68.1096 16 65.4315 16 62.7532 16C65.9793 10.6496 69.2347 5.31627 72.5195 0Z"/>
<path fill-rule="evenodd" clip-rule="evenodd" d="M88.1039 0C90.7823 0 93.4601 0 96.1385 0C99.412 5.32371 102.667 10.657 105.905 16C103.226 16 100.549 16 97.8701 16C94.632 10.6551 91.3766 5.32178 88.1039 0Z"/>
<path fill-rule="evenodd" clip-rule="evenodd" d="M109.359 0C111.806 0 114.254 0 116.701 0C116.701 3.34776 116.701 6.69553 116.701 10.0433C121.134 10.0433 125.567 10.0433 130 10.0433C130 12.0289 130 14.0144 130 16C123.12 16 116.239 16 109.359 16C109.359 10.6667 109.359 5.33333 109.359 0Z"/>
<path fill-rule="evenodd" clip-rule="evenodd" d="M35.671 16C32.8774 16 30.0837 16 27.29 16C30.4399 10.7629 33.626 5.54497 36.8485 0.34632C38.2761 2.59382 39.6614 4.86799 41.0043 7.16883C39.2101 10.1051 37.4324 13.0489 35.671 16Z"/>
<path fill-rule="evenodd" clip-rule="evenodd" d="M86.303 16C83.5325 16 80.7619 16 77.9913 16C81.147 10.7744 84.3214 5.55653 87.5152 0.34632C88.9385 2.60426 90.3356 4.87843 91.7056 7.16883C89.9179 10.1222 88.1171 13.0659 86.303 16Z"/>
</g>
</svg>